<svg id="Слой_1" data-name="Слой 1" xmlns="http://www.w3.org/2000/svg" width="1399.13556" height="2499.15477" viewBox="0 0 1399.13556 2499.15477">
  <defs>
    <style>
      .cls-1 {
        fill: #a200e5;
      }

      .cls-1, .cls-2, .cls-3 {
        fill-rule: evenodd;
      }

      .cls-2 {
        fill: #8e00e5;
      }

      .cls-3, .cls-4 {
        fill: #d600ea;
      }
    </style>
  </defs>
  <title>netflix-icon-2016-1</title>
  <g>
    <path class="cls-1" d="M43.09991,568.72251V1533.244c0,530.5193.65251,965.03744,1.64349,965.80058.98792.76315,43.41672-2.53457,94.72768-6.85939,51.31093-4.31778,122.02359-9.90047,157.21983-12.19005,53.93931-3.55449,215.76335-11.42446,234.18624-11.67894,5.589,0,5.91534-21.58415,6.577-408.61621l.98184-407.65983-.32322-.70434v.50881Z" transform="translate(-21.54996)"/>
    <path class="cls-2" d="M43.09991,568.72251,537.86883,1872.19644l.56106-220.154-.32322-.70189v.50651Z" transform="translate(-21.54996)"/>
    <path class="cls-1" d="M929.50964,569.99452l-.98793,426.64569-.98487,426.396,490.72879,1075.75618c-.28046.21666-1.57947.32737-3.69865.34864,2.45156,0,3.97-.1107,4.35727-.34864,1.64647-1.01993,1.97588-435.28359,1.64647-965.29408l-.98784-963.50389Z" transform="translate(-21.54996)"/>
    <path class="cls-2" d="M927.53684,1423.0362l469.75068,1029.77309-469.22931-1245.428Z" transform="translate(-21.54996)"/>
    <path class="cls-3" d="M43.09991,568.72251,538.10667,1651.8469v-.50881l39.14184,85.33294c217.40987,475.1516,334.17063,730.121,334.82926,730.62968.32931.252,33.22343,1.78076,73.01477,3.29785,120.38311,4.56981,269.70263,14.47733,383.18254,25.39312,25.98172,2.54406,48.67646,3.816,49.99371,2.7984L927.54,1423.02916v.2544l-45.39868-99.03763c-44.40461-96.75978-74.00262-161.51914-252.6-551.08817C581.52348,668.27361,540.73512,579.6429,539.0947,575.57955l-3.29308-7.11146H289.44934Z" transform="translate(-21.54996)"/>
  </g>
  <circle class="cls-4" cx="269.21494" cy="269.21494" r="269.21494"/>
</svg>
